# AST/ASF file generated using VICON BodyLanguage
# -----------------------------------------------
:version 1.10
:name VICON
:units
  mass 1.0
  length 0.45
  angle deg
:documentation
   .ast/.asf automatically generated from VICON data using
   VICON BodyBuilder and BodyLanguage model FoxedUp or BRILLIANT.MOD
:root
   order TX TY TZ RX RY RZ
   axis XYZ
   position 0 0 0  
   orientation 0 0 0 
:bonedata
  begin
     id 1 
     name lhipjoint
     direction 0.655637 -0.713449 0.247245 
     length 2.52691 
     axis 0 0 0  XYZ
  end
  begin
     id 2 
     name lfemur
     direction 0.34202 -0.939693 0  
     length 7.59371  
     axis 0 0 20  XYZ
    dof rx ry rz
    limits (-160.0 20.0)
           (-70.0 70.0)
           (-60.0 70.0)
  end
  begin
     id 3 
     name ltibia
     direction 0.34202 -0.939693 0   
     length 7.28717   
     axis 0 0 20   XYZ
    dof rx
    limits (-10.0 170.0)
  end
  begin
     id 4 
     name lfoot
     direction 0.0886837 -0.243657 0.965798   
     length 2.2218   
     axis -90 7.62852e-016 20   XYZ
    dof rx rz
    limits (-45.0 90.0)
           (-70.0 20.0)
  end
  begin
     id 5 
     name ltoes
     direction 1.53547e-011 -4.22004e-011 1   
     length 1.11249   
     axis -90 7.62852e-016 20   XYZ
    dof rx
    limits (-90.0 20.0)
  end
  begin
     id 6 
     name rhipjoint
     direction -0.645062 -0.722004 0.250209   
     length 2.49697  
     axis 0 0 0  XYZ 
  end
  begin
     id 7 
     name rfemur
     direction -0.34202 -0.939693 0   
     length 7.58734   
     axis 0 0 -20   XYZ
    dof rx ry rz
    limits (-160.0 20.0)
           (-70.0 70.0)
           (-70.0 60.0)
  end
  begin
     id 8 
     name rtibia
     direction -0.34202 -0.939693 0   
     length 7.21538   
     axis 0 0 -20   XYZ
    dof rx
    limits (-10.0 170.0)
 end
 begin
     id 9 
     name rfoot
     direction -0.102907 -0.282735 0.953662   
     length 2.23735  
     axis -90 -7.62852e-016 -20   XYZ
    dof rx rz
    limits (-45.0 90.0)
           (-20.0 70.0)
  end
  begin
     id 10 
     name rtoes
     direction -1.5354e-011 -4.21751e-011 1   
     length 1.11569   
     axis -90 -7.62852e-016 -20   XYZ
    dof rx
    limits (-90.0 20.0)
  end
  begin
     id 11 
     name lowerback
     direction 0.00952301 0.997604 -0.0685217   
     length 2.05943   
     axis 0 0 0   XYZ
    dof rx ry rz
    limits (-20.0 45.0)
           (-30.0 30.0)
           (-30.0 30.0)
  end
  begin
     id 12 
     name upperback
     direction 0.00494399 0.999577 -0.0286701   
     length 2.06523   
     axis 0 0 0   XYZ
    dof rx ry rz
    limits (-20.0 45.0)
           (-30.0 30.0)
           (-30.0 30.0)
  end
  begin
     id 13 
     name thorax
     direction 0.000729686 0.999992 0.00388603   
     length 2.06807   
     axis 0 0 0   XYZ
    dof rx ry rz
    limits (-20.0 45.0)
           (-30.0 30.0)
           (-30.0 30.0)
  end
  begin
     id 14 
     name lowerneck
     direction 0.00452882 0.995459 0.0950816   
     length 1.57426   
     axis 0 0 0   XYZ
    dof rx ry rz
    limits (-20.0 45.0)
           (-30.0 30.0)
           (-30.0 30.0)
  end
  begin
     id 15 
     name upperneck
     direction 0.021922 0.997711 -0.0639762   
     length 1.56399   
     axis 0 0 0   XYZ
    dof rx ry rz
    limits (-20.0 45.0)
           (-30.0 30.0)
           (-30.0 30.0)
  end
  begin
     id 16
     name head
     direction 0.008024 0.999444 -0.0323691  
     length 1.6265  
     axis 0 0 0   XYZ
    dof rx ry rz
    limits (-20.0 45.0)
           (-30.0 30.0)
           (-30.0 30.0)
  end
  begin
     id 17 
     name lclavicle
     direction 0.967826 0.247107 -0.0474446  
     length 3.6598  
     axis 0 0 0   XYZ
    dof ry rz
    limits (-20.0 10.0)
           (0.0 20.0)
  end
  begin
     id 18 
     name lhumerus
     direction 1 -4.48971e-011 -2.90544e-027   
     length 4.86513   
     axis 180 -30 -90   XYZ
    dof rx ry rz
    limits (-60.0 90.0)
           (-90.0 90.0)
           (-90.0 90.0)
  end
  begin
     id 19
     name lradius
     direction 1 -4.48958e-011 1.79638e-026   
     length 3.35554   
     axis 180 -30 -90   XYZ
    dof rx
    limits (-10.0 170.0)
  end
  begin
     id 20
     name lwrist
     direction 1 -4.48952e-011 3.34345e-026   
     length 1.67777   
     axis -2.22354e-014 90 90   XYZ
    dof ry
    limits (-180.0 0.0)
 end
  begin
     id 21 
     name lhand
     direction 1 -4.49055e-011 6.6869e-026   
     length 0.661175   
     axis -4.26681e-014 90 90   XYZ
    dof rx rz
    limits (-90.0 90.0)
           (-45.0 45.0)
  end
  begin
     id 22 
     name lfingers
     direction 1 -4.48731e-011 1.33738e-025   
     length 0.533057   
     axis -8.53362e-014 90 90   XYZ
    dof rx
    limits (0.0 90.0)
  end
  begin
     id 23
     name lthumb
     direction 0.707107 -6.35005e-011 0.707107   
     length 0.765366   
     axis -90 45 2.85299e-015   XYZ
    dof rx rz
    limits (-45.0 45.0)
           (-45.0 45.0)
  end
  begin
     id 24 
     name rclavicle
     direction -0.973174 0.211421 -0.0907389   
     length 3.59444  
     axis 0 0 0   XYZ 
    dof ry rz
    limits (-10.0 20.0)
           (-20.0 0.0)
  end
  begin
     id 25 
     name rhumerus
     direction -1 -4.48964e-011 1.56311e-027  
     length 5.02649   
     axis 180 30 90   XYZ
    dof rx ry rz
    limits (-90.0 60.0)
           (-90.0 90.0)
           (-90.0 90.0)
  end
  begin
     id 26 
     name rradius
     direction -1 -4.48948e-011 2.01724e-026   
     length 3.36431   
     axis 180 30 90   XYZ
    dof rx
    limits (-10.0 170.0)
  end
  begin
     id 27 
     name rwrist
     direction -1 -4.49008e-011 3.34345e-026   
     length 1.68216   
     axis -2.22354e-014 -90 -90   XYZ
    dof ry
    limits (-180.0 0.0)
  end
  begin
     id 28
     name rhand
     direction -1 -4.49013e-011 6.6869e-026   
     length 0.730406   
     axis -4.26681e-014 -90 -90   XYZ
    dof rx rz
    limits (-90.0 90.0)
           (-45.0 45.0)
  end
  begin
     id 29
     name rfingers
     direction -1 -4.48867e-011 1.33738e-025   
     length 0.588872   
     axis -8.53362e-014 -90 -90   XYZ
    dof rx
    limits (0.0 90.0)
  end
  begin
     id 30
     name rthumb
     direction -0.707107 -6.34907e-011 0.707107   
     length 0.845506   
     axis -90 -45 -2.85299e-015   XYZ
    dof rx rz
    limits (-45.0 45.0)
           (-45.0 45.0)
  end
:hierarchy
  begin
    root lhipjoint rhipjoint lowerback
    lhipjoint lfemur
    lfemur ltibia
    ltibia lfoot
    lfoot ltoes
    rhipjoint rfemur
    rfemur rtibia
    rtibia rfoot
    rfoot rtoes
    lowerback upperback
    upperback thorax
    thorax lowerneck lclavicle rclavicle
    lowerneck upperneck
    upperneck head
    lclavicle lhumerus
    lhumerus lradius
    lradius lwrist
    lwrist lhand lthumb
    lhand lfingers
    rclavicle rhumerus
    rhumerus rradius
    rradius rwrist
    rwrist rhand rthumb
    rhand rfingers
  end

#!OML:ASF H:\Terrain\Patient Classification 1\Takeo\Monday\TakeoMonday.ASF
:FULLY-SPECIFIED
:DEGREES

144
root 10.4498 16.5313 -6.35831 -2.61531 -6.87607 -0.19298
lowerback 8.76785 1.42725 2.35761
upperback 1.9164 2.0769 -0.908193
thorax -2.80718 1.01452 -2.49241
lowerneck -16.2047 -0.0138323 -2.66022
upperneck -7.44361 0.423086 0.67134
head 0.32226 0.282266 0.67796
rclavicle -9.60378e-015 -8.74653e-015
rhumerus -20.1781 14.3828 -85.3658
rradius 66.2587
rwrist -20.2666
rhand -31.7795 23.3078
rfingers 7.12502
rthumb -5.0358 -6.61231
lclavicle -9.60378e-015 -8.74653e-015
lhumerus -49.1197 22.947 68.9118
lradius 15.4552
lwrist 11.3724
lhand -23.5599 21.1231
lfingers 7.12502
lthumb 2.90243 51.0831
rfemur 16.2344 8.28922 24.1143
rtibia 44.1695
rfoot 16.7822 -2.92587
rtoes -30.7569
lfemur -32.473 -3.38646 -21.8024
ltibia 45.9795
lfoot -9.23799 6.92764
ltoes -7.05916
145
root 10.4669 16.5702 -6.10477 -2.92564 -7.10356 0.425205
lowerback 9.02344 1.47993 1.89019
upperback 2.0052 2.0988 -1.17159
thorax -2.86264 1.02797 -2.51178
lowerneck -17.4626 -0.102188 -1.64312
upperneck -6.34753 0.156498 -0.361553
head 0.890719 0.0971639 0.173559
rclavicle 8.34896e-015 1.98785e-015
rhumerus -20.5102 14.1585 -85.9578
rradius 64.6588
rwrist -20.6149
rhand -31.888 23.5381
rfingers 7.12502
rthumb -5.14055 -6.37957
lclavicle 8.34896e-015 1.98785e-015
lhumerus -48.2748 22.0283 70.2178
lradius 16.5899
lwrist 13.0623
lhand -24.096 21.364
lfingers 7.12502
lthumb 2.38462 51.3304
rfemur 14.2511 8.68355 23.25
rtibia 48.1924
rfoot 19.5252 -3.07054
rtoes -32.2029
lfemur -31.1808 -3.37082 -22.7356
ltibia 46.1989
lfoot -10.1685 7.32709
ltoes -8.49345
146
root 10.4855 16.6092 -5.85629 -3.00387 -7.31215 1.02501
lowerback 9.07328 1.45725 1.34959
upperback 1.94036 2.0157 -1.25043
thorax -2.97835 0.987973 -2.28336
lowerneck -18.816 0.0871113 0.230432
upperneck -4.77044 0.109189 -3.08156
head 1.66736 -0.0569252 -1.03184
rclavicle 3.50358e-015 -7.95139e-016
rhumerus -21.0383 14.4353 -86.3696
rradius 63.0724
rwrist -21.1136
rhand -31.9687 23.6926
rfingers 7.12502
rthumb -5.21852 -6.22318
lclavicle 3.50358e-015 -7.95139e-016
lhumerus -48.0066 21.6044 71.3329
lradius 17.9146
lwrist 14.4894
lhand -24.0709 21.5985
lfingers 7.12502
lthumb 2.40888 51.5646
rfemur 11.9479 8.73002 22.2259
rtibia 51.9673
rfoot 20.9433 -3.11309
rtoes -35.4127
lfemur -30.0956 -3.35807 -23.647
ltibia 46.2583
lfoot -11.0795 7.59592
ltoes -8.56243
147
root 10.4978 16.6437 -5.61626 -2.88461 -7.59836 1.29033
lowerback 9.01789 1.41437 1.08543
upperback 1.82121 1.93431 -1.21905
thorax -3.0851 0.947453 -2.09385
lowerneck -19.5365 0.261451 1.34745
upperneck -4.07669 0.162724 -4.69183
head 2.05581 -0.116012 -1.77376
rclavicle 2.72708e-015 -4.96962e-015
rhumerus -21.6776 14.838 -86.7605
rradius 61.554
rwrist -21.5808
rhand -32.0659 23.3326
rfingers 7.12502
rthumb -5.31237 -6.58086
lclavicle 2.72708e-015 -4.96962e-015
lhumerus -47.3011 21.2082 72.466
lradius 18.4849
lwrist 15.915
lhand -24.0716 21.5971
lfingers 7.12502
lthumb 2.4082 51.5633
rfemur 9.48637 8.84079 21.6839
rtibia 55.3999
rfoot 21.1338 -4.03057
rtoes -37.405
lfemur -29.2177 -3.32519 -24.1193
ltibia 46.222
lfoot -12.1676 7.83697
ltoes -7.08861
148
root 10.5016 16.6724 -5.38749 -2.79765 -7.85513 1.74016
lowerback 8.98725 1.35701 0.538633
upperback 1.74355 1.8041 -1.26974
thorax -3.16968 0.885936 -1.82481
lowerneck -15.5176 0.411271 -2.42776
upperneck -7.8381 0.901568 -0.242084
head 0.0765533 0.501206 0.36782
rclavicle -2.13818e-014 -2.38542e-015
rhumerus -22.0926 15.1522 -87.3594
rradius 59.6789
rwrist -21.7658
rhand -32.1947 22.8851
rfingers 7.12502
rthumb -5.43669 -7.02518
lclavicle -2.13818e-014 -2.38542e-015
lhumerus -46.4624 20.7293 73.5551
lradius 19.1976
lwrist 17.2736
lhand -24.0857 21.8182
lfingers 7.12502
lthumb 2.39459 51.7845
rfemur 7.15861 9.06347 21.0563
rtibia 58.4893
rfoot 20.1128 -5.27853
rtoes -37.2643
lfemur -28.4068 -3.35069 -24.7483
ltibia 46.0968
lfoot -12.9767 8.13749
ltoes -6.39952
149
root 10.5047 16.704 -5.16102 -2.84124 -8.00119 2.59029
lowerback 9.04416 1.31525 -0.424827
upperback 1.70657 1.6494 -1.44902
thorax -3.26705 0.816494 -1.45361
lowerneck -15.2494 0.637913 -2.6406
upperneck -7.90616 1.22904 -0.00506211
head 0.0066715 0.673613 0.489676
rclavicle 2.42952e-014 -1.18277e-014
rhumerus -22.4516 15.1885 -88.0166
rradius 57.6314
rwrist -21.6161
rhand -32.0888 22.7742
rfingers 7.12502
rthumb -5.33446 -7.13864
lclavicle 2.42952e-014 -1.18277e-014
lhumerus -45.7563 20.2459 74.5267
lradius 20.3601
lwrist 18.4648
lhand -23.8659 22.4261
lfingers 7.12502
lthumb 2.60685 52.3899
rfemur 4.92501 9.07693 19.9165
rtibia 61.2961
rfoot 18.5647 -6.49253
rtoes -35.3095
lfemur -27.4697 -3.34964 -25.8486
ltibia 45.8293
lfoot -13.5199 8.35926
ltoes -7.13688
150
root 10.513 16.744 -4.9288 -2.8114 -8.03226 3.13047
lowerback 9.01174 1.2966 -0.90934
upperback 1.68002 1.57262 -1.60586
thorax -3.28684 0.782333 -1.33454
lowerneck -15.1061 0.697186 -3.01919
upperneck -7.89044 1.37194 0.515502
head -0.0161789 0.761178 0.72207
rclavicle -1.77664e-014 2.28602e-015
rhumerus -22.8642 14.7584 -88.5687
rradius 55.5824
rwrist -21.4093
rhand -31.819 23.0769
rfingers 7.12502
rthumb -5.07399 -6.84236
lclavicle -1.77664e-014 2.28602e-015
lhumerus -44.8537 19.5568 75.5479
lradius 21.2811
lwrist 19.3932
lhand -23.8296 22.4106
lfingers 7.12502
lthumb 2.64191 52.374
rfemur 2.62841 8.98639 19.1035
rtibia 63.8257
rfoot 16.6808 -7.94796
rtoes -32.0049
lfemur -26.4796 -3.38702 -26.6586
ltibia 45.478
lfoot -14.0408 8.56194
ltoes -7.82078
151
root 10.5224 16.7896 -4.69353 -2.83402 -7.9239 3.41823
lowerback 9.00374 1.21012 -1.07255
upperback 1.65734 1.43879 -1.69048
thorax -3.30983 0.717135 -1.31511
lowerneck -15.1616 0.765973 -2.8175
upperneck -7.70991 1.43055 0.344857
head 0.0511791 0.781254 0.638682
rclavicle 1.87789e-014 -8.74653e-015
rhumerus -23.2072 14.0889 -89.0514
rradius 53.3195
rwrist -20.8062
rhand -31.686 23.301
rfingers 7.12502
rthumb -4.94554 -6.62129
lclavicle 1.87789e-014 -8.74653e-015
lhumerus -44.031 18.9792 76.467
lradius 21.9969
lwrist 20.0654
lhand -24.3312 21.3444
lfingers 7.12502
lthumb 2.15749 51.3132
rfemur 0.551818 8.82493 18.611
rtibia 66.0188
rfoot 14.7284 -9.30277
rtoes -28.58
lfemur -25.3116 -3.53933 -27.2109
ltibia 45.0648
lfoot -14.5991 8.72618
ltoes -7.68852
152
root 10.5257 16.8255 -4.46457 -2.92304 -7.66669 3.22236
lowerback 9.12654 1.01819 -0.817665
upperback 1.71441 1.20974 -1.60896
thorax -3.3185 0.601183 -1.349
lowerneck -15.5274 0.808335 -2.42121
upperneck -7.26108 1.42757 -0.201868
head 0.258897 0.757256 0.407076
rclavicle 7.45443e-016 2.28602e-015
rhumerus -23.5061 13.4734 -89.4027
rradius 51.184
rwrist -20.1537
rhand -31.5774 23.2809
rfingers 7.12502
rthumb -4.84067 -6.64378
lclavicle 7.45443e-016 2.28602e-015
lhumerus -42.9471 18.0657 77.6547
lradius 22.6832
lwrist 21.0765
lhand -24.9449 20.542
lfingers 7.12502
lthumb 1.56475 50.5161
rfemur -1.13814 8.25639 18.7313
rtibia 67.7916
rfoot 13.2824 -9.99813
rtoes -28.7649
lfemur -24.0207 -3.74847 -27.2258
ltibia 44.6234
lfoot -15.3511 8.72673
ltoes -7.27882
153
root 10.5257 16.8569 -4.24021 -2.91024 -7.31798 2.76441
lowerback 9.20541 0.865916 -0.284411
upperback 1.73355 1.06319 -1.47882
thorax -3.33757 0.523729 -1.49811
lowerneck -15.5934 0.805754 -2.28945
upperneck -6.97092 1.40499 -0.42901
head 0.365822 0.73638 0.315438
rclavicle -5.51627e-015 -1.1281e-014
rhumerus -24.1278 12.7478 -89.7087
rradius 49.3224
rwrist -20.1985
rhand -31.4661 23.3973
rfingers 7.12502
rthumb -4.73318 -6.52984
lclavicle -5.51627e-015 -1.1281e-014
lhumerus -41.7259 16.8725 78.8601
lradius 23.5687
lwrist 21.8033
lhand -25.1364 20.2872
lfingers 7.12502
lthumb 1.37985 50.2625
rfemur -2.87967 7.48199 19.176
rtibia 69.2272
rfoot 11.8352 -10.8213
rtoes -30.3893
lfemur -22.8472 -3.9562 -26.9174
ltibia 44.1128
lfoot -16.2237 8.49348
ltoes -5.654
